<?xml version="1.0" encoding="utf-8"?>
<!-- Generator: Adobe Illustrator 19.1.1, SVG Export Plug-In . SVG Version: 6.00 Build 0)  -->
<svg version="1.1" id="Calque_1" xmlns="http://www.w3.org/2000/svg" xmlns:xlink="http://www.w3.org/1999/xlink" x="0px" y="0px"
	 viewBox="0 0 1280 800" style="enable-background:new 0 0 1280 800;" xml:space="preserve">
<style type="text/css">
	.st0{fill:#008A27;}
	.gg:hover > circle{fill:#003F19;}
	.gg:hover > rect{fill:#003F19;}
	.st1{fill:#39B54A;}
	.st2{fill:#C9FFC9;}
	.st3{fill:none;}
	.st4{font-family:'FranklinGothic-Book';}
	.st5{font-size:15px;}
	.st6{fill:#003F19;}
	.st7{letter-spacing:1;}
	.st8{letter-spacing:3;}
	.st9{letter-spacing:-1;}
</style>
<g class="gg">
	<circle class="st0" cx="901.2" cy="152.7" r="38.5"/>
	
		<rect x="864.1" y="154.1" transform="matrix(0.9975 -7.032260e-002 7.032260e-002 0.9975 -10.0004 62.5453)" class="st0" width="38.5" height="38.5"/>
</g>
<g class="gg">
	<circle class="st0" cx="785.6" cy="127.3" r="38.5"/>
	
		<rect x="773.7" y="134.2" transform="matrix(0.4903 -0.8716 0.8716 0.4903 270.3797 769.3147)" class="st0" width="38.5" height="38.5"/>
</g>
<g class="gg">
	<circle class="st0" cx="947.5" cy="264" r="38.5"/>
	
		<rect x="901.1" y="247.3" transform="matrix(0.7708 0.6371 -0.6371 0.7708 380.7484 -525.2527)" class="st0" width="38.5" height="38.5"/>
</g>
<g class="gg">
	<circle class="st0" cx="937.5" cy="462" r="38.5"/>
	
		<rect x="893.5" y="454" transform="matrix(0.9368 0.3499 -0.3499 0.9368 223.2993 -289.4485)" class="st0" width="38.5" height="38.5"/>
</g>
<g class="gg">
	<circle class="st0" cx="930.5" cy="586" r="38.5"/>
	
		<rect x="887.9" y="552.7" transform="matrix(0.2405 0.9706 -0.9706 0.2405 1244.0962 -446.178)" class="st0" width="38.5" height="38.5"/>
</g>
<g class="gg">
	<circle class="st0" cx="817.5" cy="649" r="38.5"/>
	
		<rect x="797.3" y="602.5" transform="matrix(-0.6814 0.7319 -0.7319 -0.6814 1827.9653 447.8855)" class="st0" width="38.5" height="38.5"/>
</g>
<g>
	<circle class="st1" cx="462.5" cy="254.5" r="77.5"/>
	<rect x="462.5" y="254.5" class="st1" width="77.5" height="77.5"/>
</g>
<g>
	<circle class="st1" cx="817.5" cy="254.5" r="77.5"/>
	<rect x="740" y="254.5" class="st1" width="77.5" height="77.5"/>
</g>
<g>
	<circle class="st1" cx="817.5" cy="517.5" r="77.5"/>
	<rect x="740" y="440" class="st1" width="77.5" height="77.5"/>
</g>
<g>
	<circle class="st1" cx="462.5" cy="517.5" r="77.5"/>
	<rect x="462.5" y="440" class="st1" width="77.5" height="77.5"/>
</g>
<g>
	<path class="st2" d="M416.7,248.7h-2.1l-1.7-4.9h-6.2l-1.5,4.9h-1.7l5.4-16.7h2.4L416.7,248.7z M412.5,242.2l-2.6-8l-2.6,8H412.5z"
		/>
	<path class="st2" d="M435.6,244.3l1.7,0.3c-0.2,1.4-0.8,2.4-1.6,3.2c-0.8,0.8-1.9,1.2-3.1,1.2c-1.7,0-3-0.6-3.9-1.9
		c-0.9-1.3-1.3-2.8-1.3-4.6c0-1.9,0.5-3.4,1.4-4.7c0.9-1.2,2.2-1.9,3.8-1.9c1.3,0,2.4,0.4,3.2,1.2c0.8,0.8,1.3,1.8,1.5,3.1l-1.7,0.3
		c-0.3-2-1.3-3.1-2.9-3.1c-1.1,0-1.9,0.4-2.4,1.3c-0.6,0.9-0.9,2.1-0.9,3.5c0,1.6,0.3,2.8,0.8,3.7c0.6,0.9,1.4,1.3,2.4,1.3
		C434.2,247.4,435.2,246.4,435.6,244.3z"/>
	<path class="st2" d="M457.1,244.3l1.7,0.3c-0.2,1.4-0.8,2.4-1.6,3.2c-0.8,0.8-1.9,1.2-3.1,1.2c-1.7,0-3-0.6-3.9-1.9
		c-0.9-1.3-1.3-2.8-1.3-4.6c0-1.9,0.5-3.4,1.4-4.7c0.9-1.2,2.2-1.9,3.8-1.9c1.3,0,2.4,0.4,3.2,1.2c0.8,0.8,1.3,1.8,1.5,3.1l-1.7,0.3
		c-0.3-2-1.3-3.1-2.9-3.1c-1.1,0-1.9,0.4-2.4,1.3c-0.6,0.9-0.9,2.1-0.9,3.5c0,1.6,0.3,2.8,0.8,3.7c0.6,0.9,1.4,1.3,2.4,1.3
		C455.6,247.4,456.6,246.4,457.1,244.3z"/>
	<path class="st2" d="M475.6,249c-1.7,0-3-0.6-4-1.9c-0.9-1.3-1.4-2.8-1.4-4.7c0-2,0.5-3.5,1.6-4.7c1.1-1.2,2.4-1.8,4-1.8
		c1.7,0,3,0.6,4,1.9c1,1.2,1.5,2.8,1.5,4.6c0,1.9-0.5,3.5-1.6,4.7C478.7,248.4,477.3,249,475.6,249z M475.8,247.4
		c1,0,1.8-0.4,2.5-1.2s1-2.1,1-3.8c0-1.7-0.3-2.9-1-3.7c-0.7-0.8-1.5-1.2-2.4-1.2c-1,0-1.8,0.4-2.4,1.2c-0.7,0.8-1,2-1,3.7
		c0,1.8,0.3,3.1,1,3.8C474,247,474.8,247.4,475.8,247.4z"/>
	<path class="st2" d="M495.9,248.7H494v-12.3h1.7v2.9c0.6-1.4,1.2-2.2,1.8-2.6c0.6-0.4,1.2-0.6,1.8-0.6c0.2,0,0.4,0,0.8,0v1.8h-0.4
		c-1.1,0-1.9,0.4-2.6,1.2c-0.7,0.8-1.1,1.8-1.1,3.1V248.7z"/>
	<path class="st2" d="M521.3,232v16.7h-1.7v-2.1c-0.9,1.6-2.2,2.5-3.9,2.5c-1.4,0-2.6-0.6-3.6-1.8c-0.9-1.2-1.4-2.7-1.4-4.6
		c0-1.9,0.5-3.5,1.4-4.7c0.9-1.3,2.1-1.9,3.7-1.9c1.5,0,2.7,0.7,3.6,2v-6H521.3z M519.4,241.1c0-1.1-0.3-1.9-1-2.6
		c-0.7-0.7-1.4-1-2.3-1c-1,0-1.7,0.4-2.4,1.3c-0.6,0.8-0.9,2-0.9,3.6c0,1.7,0.3,2.9,0.8,3.8c0.6,0.9,1.3,1.3,2.3,1.3
		c0.9,0,1.7-0.4,2.4-1.1c0.7-0.7,1-1.6,1-2.6V241.1z"/>
	<path class="st2" d="M420.3,278.7h-2v-14.6l-5.4,14.6h-1.4l-5.5-14.6v14.6h-1.8V262h3.1l5,13.3l4.9-13.3h3.1V278.7z"/>
	<path class="st2" d="M434.9,279c-1.7,0-3-0.6-4-1.9c-0.9-1.3-1.4-2.8-1.4-4.7c0-2,0.5-3.5,1.6-4.7c1.1-1.2,2.4-1.8,4-1.8
		c1.7,0,3,0.6,4,1.9c1,1.2,1.5,2.8,1.5,4.6c0,1.9-0.5,3.5-1.6,4.7C438,278.4,436.6,279,434.9,279z M435.1,277.4c1,0,1.8-0.4,2.5-1.2
		s1-2.1,1-3.8c0-1.7-0.3-2.9-1-3.7c-0.7-0.8-1.5-1.2-2.4-1.2c-1,0-1.8,0.4-2.4,1.2c-0.7,0.8-1,2-1,3.7c0,1.8,0.3,3.1,1,3.8
		C433.3,277,434.1,277.4,435.1,277.4z"/>
	<path class="st2" d="M459.5,278.7h-1.8v-7.9c0-1.1-0.2-1.9-0.7-2.4c-0.5-0.5-1.1-0.7-1.8-0.7c-1,0-1.8,0.4-2.5,1.2
		c-0.7,0.8-1,1.8-1,3.1v6.8h-1.9v-12.3h1.8v2.3c1-1.7,2.3-2.6,3.9-2.6c0.9,0,1.7,0.2,2.3,0.7c0.6,0.5,1.1,1,1.3,1.6
		c0.2,0.6,0.4,1.7,0.4,3.2V278.7z"/>
	<path class="st2" d="M479.2,262v16.7h-1.7v-2.1c-0.9,1.6-2.2,2.5-3.9,2.5c-1.4,0-2.6-0.6-3.6-1.8c-0.9-1.2-1.4-2.7-1.4-4.6
		c0-1.9,0.5-3.5,1.4-4.7c0.9-1.3,2.1-1.9,3.7-1.9c1.5,0,2.7,0.7,3.6,2v-6H479.2z M477.3,271.1c0-1.1-0.3-1.9-1-2.6
		c-0.7-0.7-1.4-1-2.3-1c-1,0-1.7,0.4-2.4,1.3c-0.6,0.8-0.9,2-0.9,3.6c0,1.7,0.3,2.9,0.8,3.8c0.6,0.9,1.3,1.3,2.3,1.3
		c0.9,0,1.7-0.4,2.4-1.1c0.7-0.7,1-1.6,1-2.6V271.1z"/>
	<path class="st2" d="M491.2,262v2.1h-2.1V262H491.2z M491.2,266.3v12.3h-1.9v-12.3H491.2z"/>
	<path class="st2" d="M510.9,278.7H509c-0.1-0.4-0.1-1.1-0.2-2.2c-0.8,1.7-2.3,2.6-4.3,2.6c-1.4,0-2.4-0.4-3.2-1.1
		c-0.7-0.7-1.1-1.6-1.1-2.6c0-1.2,0.5-2.3,1.6-3.1c1.1-0.8,2.9-1.2,5.4-1.2c0.3,0,0.9,0,1.6,0c0-1-0.1-1.7-0.2-2.1
		c-0.2-0.4-0.5-0.8-1-1c-0.5-0.3-1.1-0.4-1.9-0.4c-1.9,0-3.1,0.7-3.4,2.2l-1.8-0.3c0.4-2.3,2.2-3.4,5.4-3.4c1.7,0,2.9,0.4,3.6,1.1
		c0.7,0.8,1.1,2.1,1.1,3.9v5.2C510.6,277.1,510.7,277.9,510.9,278.7z M508.8,272.5c-0.8,0-1.4-0.1-1.8-0.1c-1.5,0-2.7,0.2-3.5,0.7
		c-0.8,0.5-1.3,1.2-1.3,2.2c0,0.6,0.2,1.1,0.7,1.5c0.5,0.4,1.1,0.6,2,0.6c1.2,0,2.1-0.4,2.9-1.3c0.7-0.8,1.1-1.8,1.1-3
		C508.8,273.1,508.8,272.8,508.8,272.5z"/>
	<path class="st2" d="M522.6,278.7h-1.9V262h1.9V278.7z"/>
</g>
<g>
	<path class="st2" d="M763.3,260.4l1.9-0.4c0.8,2.3,2.4,3.4,4.9,3.4c1.3,0,2.3-0.3,3-0.8c0.7-0.6,1-1.3,1-2.2c0-0.7-0.3-1.3-0.8-1.7
		c-0.5-0.4-1.1-0.7-1.8-0.9l-3.3-0.8c-0.9-0.2-1.6-0.5-2.1-0.8c-0.5-0.3-1-0.8-1.4-1.4s-0.6-1.4-0.6-2.2c0-1.4,0.5-2.5,1.6-3.3
		c1-0.8,2.4-1.2,4-1.2c3,0,5,1.4,6,4.1l-1.9,0.6c-0.2-1-0.7-1.7-1.6-2.2c-0.8-0.5-1.7-0.8-2.6-0.8c-0.9,0-1.7,0.2-2.4,0.7
		c-0.7,0.5-1.1,1.2-1.1,2c0,1.2,0.9,2.1,2.7,2.5l3.1,0.7c2.8,0.7,4.3,2.2,4.3,4.6c0,1.4-0.5,2.6-1.6,3.6c-1.1,1-2.6,1.4-4.5,1.4
		C766.7,265.2,764.4,263.6,763.3,260.4z"/>
	<path class="st2" d="M795.2,264.8h-1.7v-2.4c-0.9,1.8-2.2,2.7-3.9,2.7c-1.3,0-2.2-0.4-3-1.2c-0.7-0.8-1.1-2-1.1-3.5v-7.9h1.9v7.9
		c0,1.2,0.3,2.1,0.8,2.5c0.5,0.5,1.1,0.7,1.7,0.7c0.6,0,1.2-0.2,1.7-0.5c0.5-0.3,0.9-0.8,1.3-1.5c0.3-0.6,0.5-1.4,0.5-2.1v-6.9h1.9
		V264.8z"/>
	<path class="st2" d="M812.5,260.5l1.7,0.3c-0.2,1.4-0.8,2.4-1.6,3.2c-0.8,0.8-1.9,1.2-3.1,1.2c-1.7,0-3-0.6-3.9-1.9
		c-0.9-1.3-1.3-2.8-1.3-4.6c0-1.9,0.5-3.4,1.4-4.7c0.9-1.2,2.2-1.9,3.8-1.9c1.3,0,2.4,0.4,3.2,1.2c0.8,0.8,1.3,1.8,1.5,3.1l-1.7,0.3
		c-0.3-2-1.3-3.1-2.9-3.1c-1.1,0-1.9,0.4-2.4,1.3c-0.6,0.9-0.9,2.1-0.9,3.5c0,1.6,0.3,2.8,0.8,3.7c0.6,0.9,1.4,1.3,2.4,1.3
		C811.1,263.6,812.1,262.6,812.5,260.5z"/>
	<path class="st2" d="M830.4,260.5l1.7,0.3c-0.2,1.4-0.8,2.4-1.6,3.2c-0.8,0.8-1.9,1.2-3.1,1.2c-1.7,0-3-0.6-3.9-1.9
		c-0.9-1.3-1.3-2.8-1.3-4.6c0-1.9,0.5-3.4,1.4-4.7c0.9-1.2,2.2-1.9,3.8-1.9c1.3,0,2.4,0.4,3.2,1.2c0.8,0.8,1.3,1.8,1.5,3.1l-1.7,0.3
		c-0.3-2-1.3-3.1-2.9-3.1c-1.1,0-1.9,0.4-2.4,1.3c-0.6,0.9-0.9,2.1-0.9,3.5c0,1.6,0.3,2.8,0.8,3.7c0.6,0.9,1.4,1.3,2.4,1.3
		C829,263.6,830,262.6,830.4,260.5z"/>
	<path class="st2" d="M849.2,261.2l1.8,0.4c-0.3,1.1-1,1.9-1.9,2.6c-0.9,0.7-2.1,1-3.3,1c-1.7,0-3-0.6-4.1-1.8
		c-1-1.2-1.6-2.7-1.6-4.7c0-2,0.5-3.5,1.6-4.8c1.1-1.2,2.4-1.8,4.1-1.8c1.6,0,2.9,0.6,3.9,1.7c1,1.1,1.5,2.8,1.5,5h-9
		c0,1.9,0.4,3.1,1.2,3.8c0.8,0.7,1.6,1,2.5,1C847.4,263.6,848.5,262.8,849.2,261.2z M849.1,257.4c0-0.7-0.1-1.3-0.3-1.8
		c-0.2-0.5-0.6-1-1.1-1.4c-0.5-0.4-1.1-0.6-1.8-0.6c-1,0-1.8,0.3-2.4,1c-0.7,0.7-1,1.6-1.1,2.8H849.1z M842.4,248.3l0.8-1.5l4.8,2.8
		l-0.5,1L842.4,248.3z"/>
	<path class="st2" d="M858.6,261.6l1.8-0.4c0.4,1.6,1.7,2.3,3.9,2.3c0.8,0,1.5-0.2,2-0.5c0.6-0.4,0.8-0.9,0.8-1.5
		c0-1-0.7-1.6-2.1-1.8l-2.6-0.5c-1-0.2-1.8-0.6-2.4-1.1c-0.6-0.6-0.9-1.3-0.9-2.3c0-1,0.4-1.9,1.2-2.6c0.8-0.7,1.9-1,3.3-1
		c2.7,0,4.3,1,5,3.1l-1.8,0.4c-0.5-1.3-1.5-1.9-3.1-1.9c-0.8,0-1.4,0.2-1.9,0.5c-0.5,0.3-0.8,0.8-0.8,1.3c0,0.9,0.6,1.5,1.9,1.7
		l2.4,0.4c2.5,0.5,3.8,1.7,3.8,3.7c0,1.1-0.5,2-1.4,2.7c-0.9,0.7-2.2,1-3.7,1C861.1,265.2,859.3,264,858.6,261.6z"/>
</g>
<g>
	<path class="st2" d="M429.7,490.1v1.8h-9.8v-16.7h2.1v14.8H429.7z"/>
	<path class="st2" d="M447.5,491.9h-1.7v-2.4c-0.9,1.8-2.2,2.7-3.9,2.7c-1.3,0-2.2-0.4-3-1.2s-1.1-2-1.1-3.5v-7.9h1.9v7.9
		c0,1.2,0.3,2.1,0.8,2.5c0.5,0.5,1.1,0.7,1.7,0.7c0.6,0,1.2-0.2,1.7-0.5c0.5-0.4,0.9-0.8,1.3-1.5c0.3-0.6,0.5-1.4,0.5-2.1v-6.9h1.9
		V491.9z"/>
	<path class="st2" d="M463.2,490.6v1.5c-0.7,0.1-1.3,0.1-1.8,0.1c-2.4,0-3.6-1.2-3.6-3.7v-7.4h-2.2v-1.5h2.2l0.1-3.1l1.8-0.2v3.3
		h2.8v1.5h-2.8v7.7c0,1.3,0.7,1.9,2,1.9C462.2,490.8,462.7,490.7,463.2,490.6z"/>
	<path class="st2" d="M477.1,490.6v1.5c-0.7,0.1-1.3,0.1-1.8,0.1c-2.4,0-3.6-1.2-3.6-3.7v-7.4h-2.2v-1.5h2.2l0.1-3.1l1.8-0.2v3.3
		h2.8v1.5h-2.8v7.7c0,1.3,0.7,1.9,2,1.9C476.1,490.8,476.6,490.7,477.1,490.6z"/>
	<path class="st2" d="M493.2,488.3l1.8,0.4c-0.3,1.1-1,1.9-1.9,2.6c-0.9,0.7-2.1,1-3.3,1c-1.7,0-3-0.6-4.1-1.8
		c-1-1.2-1.6-2.7-1.6-4.7c0-2,0.5-3.5,1.6-4.8c1.1-1.2,2.4-1.8,4.1-1.8c1.6,0,2.9,0.6,3.9,1.7c1,1.1,1.5,2.8,1.5,5h-9
		c0,1.9,0.4,3.1,1.2,3.8s1.6,1,2.5,1C491.5,490.7,492.6,489.9,493.2,488.3z M493.1,484.5c0-0.7-0.1-1.3-0.3-1.8
		c-0.2-0.5-0.6-1-1.1-1.4c-0.5-0.4-1.1-0.6-1.8-0.6c-1,0-1.8,0.3-2.4,1c-0.7,0.7-1,1.6-1.1,2.8H493.1z"/>
	<path class="st2" d="M506.3,491.9h-1.9v-12.3h1.7v2.9c0.6-1.4,1.2-2.2,1.8-2.6c0.6-0.4,1.2-0.6,1.8-0.6c0.2,0,0.4,0,0.8,0v1.8H510
		c-1.1,0-1.9,0.4-2.6,1.2c-0.7,0.8-1.1,1.8-1.1,3.1V491.9z"/>
	<path class="st2" d="M420.2,526.1h-1.9v-16.5h1.7v2.4c0.9-1.8,2.2-2.7,3.9-2.7c1.5,0,2.6,0.6,3.5,1.8c0.9,1.2,1.3,2.8,1.3,4.6
		c0,2-0.5,3.6-1.4,4.8c-0.9,1.2-2.1,1.8-3.5,1.8c-1.5,0-2.8-0.7-3.6-2.2V526.1z M420.2,514v3.5c0.1,0.9,0.5,1.7,1.2,2.3
		c0.7,0.6,1.4,0.9,2.1,0.9c0.8,0,1.6-0.4,2.2-1.1c0.6-0.7,1-2,1-3.8c0-1.6-0.3-2.8-0.9-3.6c-0.6-0.8-1.4-1.3-2.3-1.3
		c-0.8,0-1.5,0.3-2.1,0.9C420.8,512.4,420.4,513.1,420.2,514z"/>
	<path class="st2" d="M439.8,522.3c-1.7,0-3-0.6-4-1.9c-0.9-1.3-1.4-2.8-1.4-4.7c0-2,0.5-3.5,1.6-4.7c1.1-1.2,2.4-1.8,4-1.8
		c1.7,0,3,0.6,4,1.9c1,1.2,1.5,2.8,1.5,4.6c0,1.9-0.5,3.5-1.6,4.7C442.9,521.7,441.5,522.3,439.8,522.3z M440,520.7
		c1,0,1.8-0.4,2.5-1.2c0.7-0.8,1-2.1,1-3.8c0-1.7-0.3-2.9-1-3.7c-0.7-0.8-1.5-1.2-2.4-1.2c-1,0-1.8,0.4-2.4,1.2s-1,2-1,3.7
		c0,1.8,0.3,3.1,1,3.8C438.2,520.3,439,520.7,440,520.7z"/>
	<path class="st2" d="M461.9,521.9h-1.7v-2.4c-0.9,1.8-2.2,2.7-3.9,2.7c-1.3,0-2.2-0.4-3-1.2s-1.1-2-1.1-3.5v-7.9h1.9v7.9
		c0,1.2,0.3,2.1,0.8,2.5s1.1,0.7,1.7,0.7c0.6,0,1.2-0.2,1.7-0.5c0.5-0.4,0.9-0.8,1.3-1.5c0.3-0.6,0.5-1.4,0.5-2.1v-6.9h1.9V521.9z"
		/>
	<path class="st2" d="M471.4,521.9h-1.9v-12.3h1.7v2.9c0.6-1.4,1.2-2.2,1.8-2.6c0.6-0.4,1.2-0.6,1.8-0.6c0.2,0,0.4,0,0.8,0v1.8h-0.4
		c-1.1,0-1.9,0.4-2.6,1.2c-0.7,0.8-1.1,1.8-1.1,3.1V521.9z"/>
	<path class="st2" d="M493.3,521.9h-1.9v-16.7h1.9V521.9z"/>
	<path class="st2" d="M509.1,518.3l1.8,0.4c-0.3,1.1-1,1.9-1.9,2.6c-0.9,0.7-2.1,1-3.3,1c-1.7,0-3-0.6-4.1-1.8
		c-1-1.2-1.6-2.7-1.6-4.7c0-2,0.5-3.5,1.6-4.8c1.1-1.2,2.4-1.8,4.1-1.8c1.6,0,2.9,0.6,3.9,1.7c1,1.1,1.5,2.8,1.5,5h-9
		c0,1.9,0.4,3.1,1.2,3.8s1.6,1,2.5,1C507.3,520.7,508.4,519.9,509.1,518.3z M509,514.5c0-0.7-0.1-1.3-0.3-1.8
		c-0.2-0.5-0.6-1-1.1-1.4c-0.5-0.4-1.1-0.6-1.8-0.6c-1,0-1.8,0.3-2.4,1c-0.7,0.7-1,1.6-1.1,2.8H509z"/>
	<path class="st2" d="M425.6,547.6l1.7,0.3c-0.2,1.4-0.8,2.4-1.6,3.2c-0.8,0.8-1.9,1.2-3.1,1.2c-1.7,0-3-0.6-3.9-1.9
		c-0.9-1.3-1.3-2.8-1.3-4.6c0-1.9,0.5-3.4,1.4-4.7c0.9-1.2,2.2-1.9,3.8-1.9c1.3,0,2.4,0.4,3.2,1.2c0.8,0.8,1.3,1.8,1.5,3.1l-1.7,0.3
		c-0.3-2-1.3-3.1-2.9-3.1c-1.1,0-1.9,0.5-2.4,1.3c-0.6,0.9-0.9,2.1-0.9,3.5c0,1.6,0.3,2.8,0.8,3.7c0.6,0.9,1.4,1.3,2.4,1.3
		C424.2,550.7,425.2,549.7,425.6,547.6z"/>
	<path class="st2" d="M438.1,551.9h-1.9v-16.7h1.9V551.9z"/>
	<path class="st2" d="M450.2,535.3v2.1h-2.1v-2.1H450.2z M450.1,539.6v12.3h-1.9v-12.3H450.1z"/>
	<path class="st2" d="M476.7,551.9h-1.9v-7.7c0-0.8-0.1-1.4-0.2-1.8c-0.1-0.4-0.4-0.8-0.8-1.1c-0.4-0.3-0.9-0.5-1.4-0.5
		c-0.7,0-1.4,0.3-2.1,1c-0.7,0.7-1,1.7-1,3.1v6.9h-1.9v-8.1c0-1.1-0.3-1.8-0.8-2.3c-0.5-0.4-1.1-0.7-1.6-0.7c-0.8,0-1.5,0.3-2.1,1
		c-0.6,0.7-0.9,1.6-0.9,2.7v7.4h-1.8v-12.3h1.6v2.4c0.9-1.8,2.2-2.7,3.8-2.7c0.9,0,1.6,0.3,2.3,0.9c0.6,0.6,1,1.3,1.2,2.1
		c0.8-2,2.1-3,3.9-3c0.8,0,1.6,0.2,2.2,0.7c0.6,0.5,1,1,1.2,1.7c0.2,0.6,0.3,1.5,0.3,2.6V551.9z"/>
	<path class="st2" d="M496.4,551.9h-1.9c-0.1-0.4-0.1-1.1-0.2-2.2c-0.8,1.7-2.3,2.6-4.3,2.6c-1.4,0-2.4-0.4-3.2-1.1
		c-0.7-0.7-1.1-1.6-1.1-2.6c0-1.2,0.5-2.3,1.6-3.1s2.9-1.2,5.4-1.2c0.3,0,0.9,0,1.6,0c0-1-0.1-1.7-0.2-2.1c-0.2-0.4-0.5-0.8-1-1
		s-1.1-0.4-1.9-0.4c-1.9,0-3.1,0.7-3.4,2.2l-1.8-0.3c0.4-2.3,2.2-3.4,5.4-3.4c1.7,0,2.9,0.4,3.6,1.1c0.7,0.8,1.1,2.1,1.1,3.9v5.2
		C496.2,550.4,496.3,551.2,496.4,551.9z M494.3,545.8c-0.8,0-1.4-0.1-1.8-0.1c-1.5,0-2.7,0.2-3.5,0.7c-0.8,0.5-1.3,1.2-1.3,2.2
		c0,0.6,0.2,1.1,0.7,1.5c0.5,0.4,1.1,0.6,2,0.6c1.2,0,2.1-0.4,2.9-1.3c0.7-0.8,1.1-1.8,1.1-3C494.3,546.3,494.3,546.1,494.3,545.8z"
		/>
	<path class="st2" d="M511.8,550.6v1.5c-0.7,0.1-1.3,0.1-1.8,0.1c-2.4,0-3.6-1.2-3.6-3.7v-7.4h-2.2v-1.5h2.2l0.1-3.1l1.8-0.2v3.3
		h2.8v1.5h-2.8v7.7c0,1.3,0.7,1.9,2,1.9C510.8,550.8,511.3,550.7,511.8,550.6z"/>
</g>
<g>
	<path class="st2" d="M763.5,504.5v11.6c0,2-0.5,3.4-1.4,4.2c-0.9,0.8-2.1,1.2-3.6,1.2c-0.8,0-1.6-0.1-2.4-0.3v-1.7
		c0.8,0.2,1.5,0.3,2.2,0.3c0.9,0,1.6-0.1,2.1-0.4c0.4-0.3,0.7-0.6,0.9-1.1s0.2-1.2,0.2-2.1v-11.6H763.5z"/>
	<path class="st2" d="M780.8,521.2h-1.7v-2.4c-0.9,1.8-2.2,2.7-3.9,2.7c-1.3,0-2.2-0.4-3-1.2c-0.7-0.8-1.1-2-1.1-3.5v-7.9h1.9v7.9
		c0,1.2,0.3,2.1,0.8,2.5s1.1,0.7,1.7,0.7c0.6,0,1.2-0.2,1.7-0.5c0.5-0.3,0.9-0.8,1.3-1.5c0.3-0.6,0.5-1.4,0.5-2.1v-6.9h1.9V521.2z"
		/>
	<path class="st2" d="M790.3,521.2h-1.9v-12.3h1.7v2.9c0.6-1.4,1.2-2.2,1.8-2.6c0.6-0.4,1.2-0.6,1.8-0.6c0.2,0,0.4,0,0.8,0v1.8h-0.4
		c-1.1,0-1.9,0.4-2.6,1.2s-1.1,1.8-1.1,3.1V521.2z"/>
	<path class="st2" d="M802.4,504.5v2.1h-2.1v-2.1H802.4z M802.3,508.8v12.3h-1.9v-12.3H802.3z"/>
	<path class="st2" d="M819.5,504.5v16.7h-1.7V519c-0.9,1.6-2.2,2.5-3.9,2.5c-1.4,0-2.6-0.6-3.6-1.8c-0.9-1.2-1.4-2.7-1.4-4.6
		c0-1.9,0.5-3.5,1.4-4.7c0.9-1.3,2.1-1.9,3.7-1.9c1.5,0,2.7,0.7,3.6,2v-6H819.5z M817.6,513.6c0-1.1-0.3-1.9-1-2.6
		c-0.7-0.7-1.4-1-2.3-1c-1,0-1.7,0.4-2.4,1.3c-0.6,0.8-0.9,2-0.9,3.6c0,1.7,0.3,2.9,0.8,3.8c0.6,0.9,1.3,1.3,2.3,1.3
		c0.9,0,1.7-0.4,2.4-1.1s1-1.6,1-2.6V513.6z"/>
	<path class="st2" d="M829.1,504.5v2.1H827v-2.1H829.1z M829,508.8v12.3h-1.9v-12.3H829z"/>
	<path class="st2" d="M846.2,508.7v16.7h-1.9v-6.4c-0.8,1.7-2,2.6-3.7,2.6c-1.4,0-2.6-0.6-3.5-1.7s-1.4-2.7-1.4-4.7
		c0-1.9,0.5-3.5,1.4-4.7c0.9-1.2,2.1-1.9,3.7-1.9c0.7,0,1.4,0.1,2,0.4c0.6,0.3,1.2,0.9,1.8,1.9l0.8-2.2H846.2z M844.2,514
		c-0.1-1.4-0.5-2.5-1.2-3.1c-0.7-0.6-1.4-0.9-2.1-0.9c-1,0-1.7,0.5-2.3,1.4c-0.6,0.9-0.9,2.1-0.9,3.6c0,1.5,0.3,2.6,0.8,3.5
		c0.6,0.9,1.3,1.3,2.3,1.3c1,0,1.8-0.4,2.4-1.3c0.6-0.9,0.9-1.8,0.9-2.9V514z"/>
	<path class="st2" d="M863.2,521.2h-1.7v-2.4c-0.9,1.8-2.2,2.7-3.9,2.7c-1.3,0-2.2-0.4-3-1.2c-0.7-0.8-1.1-2-1.1-3.5v-7.9h1.9v7.9
		c0,1.2,0.3,2.1,0.8,2.5s1.1,0.7,1.7,0.7c0.6,0,1.2-0.2,1.7-0.5c0.5-0.3,0.9-0.8,1.3-1.5c0.3-0.6,0.5-1.4,0.5-2.1v-6.9h1.9V521.2z"
		/>
	<path class="st2" d="M878.9,517.5l1.8,0.4c-0.3,1.1-1,1.9-1.9,2.6c-0.9,0.7-2.1,1-3.3,1c-1.7,0-3-0.6-4.1-1.8s-1.6-2.7-1.6-4.7
		c0-2,0.5-3.5,1.6-4.8c1.1-1.2,2.4-1.8,4.1-1.8c1.6,0,2.9,0.6,3.9,1.7c1,1.1,1.5,2.8,1.5,5h-9c0,1.9,0.4,3.1,1.2,3.8s1.6,1,2.5,1
		C877.2,519.9,878.3,519.1,878.9,517.5z M878.8,513.7c0-0.7-0.1-1.3-0.3-1.8c-0.2-0.5-0.6-1-1.1-1.4c-0.5-0.4-1.1-0.6-1.8-0.6
		c-1,0-1.8,0.3-2.4,1c-0.7,0.7-1,1.6-1.1,2.8H878.8z"/>
</g>
<g>
	<path class="st2" d="M756.9,132h-1.3v-10h6.1v1.1h-4.9v3.2h4v1h-4V132z"/>
	<path class="st2" d="M765.3,132h-1.1v-7.4h1v1.7c0.4-0.8,0.7-1.3,1.1-1.6c0.4-0.2,0.7-0.4,1.1-0.4c0.1,0,0.3,0,0.5,0v1.1h-0.2
		c-0.6,0-1.2,0.2-1.6,0.7s-0.6,1.1-0.7,1.9V132z"/>
	<path class="st2" d="M776.4,132h-1.1c0-0.2-0.1-0.7-0.1-1.3c-0.5,1-1.4,1.5-2.6,1.5c-0.8,0-1.5-0.2-1.9-0.7c-0.4-0.4-0.7-1-0.7-1.6
		c0-0.7,0.3-1.4,1-1.8c0.6-0.5,1.7-0.7,3.2-0.7c0.2,0,0.5,0,1,0c0-0.6,0-1-0.1-1.3c-0.1-0.3-0.3-0.5-0.6-0.6s-0.7-0.2-1.2-0.2
		c-1.2,0-1.8,0.4-2,1.3l-1.1-0.2c0.3-1.4,1.3-2,3.3-2c1,0,1.7,0.2,2.2,0.7c0.4,0.5,0.6,1.2,0.6,2.3v3.1
		C776.2,131.1,776.3,131.6,776.4,132z M775.1,128.3c-0.5,0-0.8,0-1.1,0c-0.9,0-1.6,0.1-2.1,0.4c-0.5,0.3-0.8,0.7-0.8,1.3
		c0,0.4,0.1,0.7,0.4,0.9c0.3,0.3,0.7,0.4,1.2,0.4c0.7,0,1.3-0.3,1.7-0.8c0.4-0.5,0.7-1.1,0.7-1.8
		C775.1,128.7,775.1,128.5,775.1,128.3z"/>
	<path class="st2" d="M785.9,132h-1.1v-4.8c0-0.7-0.1-1.2-0.4-1.4c-0.3-0.3-0.7-0.4-1.1-0.4c-0.6,0-1.1,0.2-1.5,0.7
		c-0.4,0.5-0.6,1.1-0.6,1.9v4.1H780v-7.4h1.1v1.4c0.6-1,1.4-1.6,2.3-1.6c0.6,0,1,0.1,1.4,0.4c0.4,0.3,0.7,0.6,0.8,1
		c0.1,0.4,0.2,1,0.2,1.9V132z"/>
	<path class="st2" d="M792.2,132.2l-0.1,0.5c0.5,0,0.9,0.1,1.1,0.3c0.2,0.2,0.3,0.4,0.3,0.7s-0.1,0.5-0.3,0.7
		c-0.2,0.2-0.6,0.3-1.1,0.3c-0.5,0-0.9-0.1-1.3-0.3l0.2-0.5c0.4,0.2,0.7,0.3,1.1,0.3c0.2,0,0.4,0,0.5-0.1c0.1-0.1,0.2-0.2,0.2-0.4
		c0-0.3-0.3-0.5-0.8-0.5c-0.1,0-0.3,0-0.5,0l0.3-1c-0.9-0.1-1.5-0.6-2-1.3c-0.5-0.7-0.7-1.6-0.7-2.6c0-1.1,0.3-2.1,0.8-2.8
		c0.6-0.7,1.3-1.1,2.3-1.1c0.8,0,1.5,0.2,1.9,0.7c0.5,0.5,0.8,1.1,0.9,1.9l-1,0.2c-0.2-1.2-0.8-1.8-1.8-1.8c-0.6,0-1.1,0.3-1.5,0.8
		c-0.3,0.5-0.5,1.2-0.5,2.1c0,0.9,0.2,1.7,0.5,2.2s0.8,0.8,1.4,0.8c1,0,1.6-0.6,1.8-1.8l1,0.2c-0.1,0.8-0.5,1.4-1,1.9
		S793,132.2,792.2,132.2z"/>
	<path class="st2" d="M803.9,132h-1.1c0-0.2-0.1-0.7-0.1-1.3c-0.5,1-1.4,1.5-2.6,1.5c-0.8,0-1.5-0.2-1.9-0.7c-0.4-0.4-0.7-1-0.7-1.6
		c0-0.7,0.3-1.4,1-1.8c0.6-0.5,1.7-0.7,3.2-0.7c0.2,0,0.5,0,1,0c0-0.6,0-1-0.1-1.3c-0.1-0.3-0.3-0.5-0.6-0.6s-0.7-0.2-1.2-0.2
		c-1.2,0-1.8,0.4-2,1.3l-1.1-0.2c0.3-1.4,1.3-2,3.3-2c1,0,1.7,0.2,2.2,0.7c0.4,0.5,0.6,1.2,0.6,2.3v3.1
		C803.8,131.1,803.8,131.6,803.9,132z M802.7,128.3c-0.5,0-0.8,0-1.1,0c-0.9,0-1.6,0.1-2.1,0.4c-0.5,0.3-0.8,0.7-0.8,1.3
		c0,0.4,0.1,0.7,0.4,0.9c0.3,0.3,0.7,0.4,1.2,0.4c0.7,0,1.3-0.3,1.7-0.8c0.4-0.5,0.7-1.1,0.7-1.8
		C802.7,128.7,802.7,128.5,802.7,128.3z"/>
	<path class="st2" d="M808.8,122v1.3h-1.2V122H808.8z M808.7,124.6v7.4h-1.1v-7.4H808.7z"/>
	<path class="st2" d="M811.5,130.1l1.1-0.2c0.2,0.9,1,1.4,2.3,1.4c0.5,0,0.9-0.1,1.2-0.3c0.3-0.2,0.5-0.5,0.5-0.9
		c0-0.6-0.4-0.9-1.3-1.1l-1.6-0.3c-0.6-0.1-1.1-0.3-1.5-0.7s-0.5-0.8-0.5-1.4c0-0.6,0.2-1.1,0.7-1.6c0.5-0.4,1.2-0.6,2-0.6
		c1.6,0,2.6,0.6,3,1.9l-1.1,0.2c-0.3-0.8-0.9-1.2-1.9-1.2c-0.5,0-0.9,0.1-1.2,0.3c-0.3,0.2-0.5,0.5-0.5,0.8c0,0.5,0.4,0.9,1.2,1
		l1.4,0.3c1.5,0.3,2.3,1,2.3,2.2c0,0.7-0.3,1.2-0.8,1.6c-0.6,0.4-1.3,0.6-2.2,0.6C813,132.2,811.9,131.5,811.5,130.1z"/>
</g>
<rect x="854" y="138.7" class="st3" width="94.3" height="48.5"/>
<text transform="matrix(1 0 0 1 883.0766 148.6584)"><tspan x="0" y="0" class="st2 st4 st5">Diplo-</tspan><tspan x="-8" y="18" class="st2 st4 st5">matique</tspan></text>
<rect x="891.5" y="250.6" class="st3" width="112" height="75.3"/>
<text transform="matrix(1 0 0 1 925.353 260.595)"><tspan x="0" y="0" class="st2 st4 st5">Pour le</tspan><tspan x="2.8" y="18" class="st2 st4 st5">climat</tspan></text>
<g class="gg">
	<circle class="st0" cx="442.8" cy="124.3" r="38.5"/>
	
		<rect x="426.4" y="132.1" transform="matrix(0.6306 -0.7761 0.7761 0.6306 47.1045 401.7622)" class="st0" width="38.5" height="38.5"/>
</g>
<g class="gg">
	<circle class="st0" cx="331.2" cy="254.1" r="38.5"/>
	
		<rect x="339.1" y="237.3" transform="matrix(-0.6413 -0.7673 0.7673 -0.6413 391.2745 696.0151)" class="st0" width="38.5" height="38.5"/>
</g>
<g class="gg">
	<circle class="st0" cx="335.3" cy="484.1" r="38.5"/>
	
		<rect x="342.6" y="470.8" transform="matrix(-0.5377 -0.8431 0.8431 -0.5377 143.2957 1058.5684)" class="st0" width="38.5" height="38.5"/>
</g>
<g class="gg">
	<circle class="st0" cx="369.6" cy="609.8" r="38.5"/>
	
		<rect x="371.4" y="573.2" transform="matrix(-0.9956 -9.380632e-002 9.380632e-002 -0.9956 723.9214 1218.8718)" class="st0" width="38.5" height="38.5"/>
</g>
<g class="gg">
	<circle class="st0" cx="521" cy="635.3" r="38.5"/>
	
		<rect x="487.4" y="592.9" transform="matrix(-0.2293 0.9733 -0.9733 -0.2293 1218.6885 259.3687)" class="st0" width="38.5" height="38.5"/>
</g>
<rect x="392.5" y="112.5" class="st3" width="102" height="71.3"/>
<text transform="matrix(1 0 0 1 418.2646 122.5049)"><tspan x="0" y="0" class="st2 st4 st5">55 pays</tspan><tspan x="-4.1" y="18" class="st2 st4 st5">55% GES</tspan></text>
<rect x="278.4" y="242.5" class="st3" width="107" height="90"/>
<text transform="matrix(1 0 0 1 299.5942 252.5007)"><tspan x="0" y="0" class="st2 st4 st5">Influence</tspan><tspan x="15.3" y="18" class="st2 st4 st5 st7">Pays</tspan></text>
<rect x="279.3" y="478.3" class="st3" width="112" height="73.3"/>
<text transform="matrix(1 0 0 1 312.0685 488.3267)" class="st2 st4 st5 st8">Actes</text>
<rect x="315.8" y="603" class="st3" width="107.7" height="71.7"/>
<text transform="matrix(1 0 0 1 341.491 613.0052)" class="st2 st4 st5 st7">Paroles</text>
<rect x="465" y="623" class="st3" width="111.3" height="46.7"/>
<text transform="matrix(1 0 0 1 491.3117 633.0045)"><tspan x="0" y="0" class="st2 st4 st5 st7">Objectif</tspan><tspan x="14.8" y="18" class="st2 st4 st5 st7">2°C</tspan></text>
<rect x="862.8" y="437.6" class="st3" width="149.3" height="54.7"/>
<text transform="matrix(1 0 0 1 923.0894 447.6409)"><tspan x="0" y="0" class="st2 st4 st5 st7">Non</tspan><tspan x="-14.7" y="18" class="st2 st4 st5 st7">contrai-</tspan><tspan x="-6.7" y="36" class="st2 st4 st5 st7">gnant</tspan></text>
<rect x="540" y="332" class="st2" width="200" height="108"/>
<g>
	<path class="st1" d="M578.4,349.3l-11,0.7c-0.2-6.3-2.6-9.5-7.4-9.5c-5.5,0-8.2,4.9-8.2,14.6c0,5.6,0.7,9.4,2.2,11.4
		c1.5,2,3.6,3,6.2,3c4.3,0,7-2.8,7.9-8.4l10.1,0.6c-0.7,5.3-2.6,9.4-6,12.2c-3.3,2.8-7.4,4.2-12.2,4.2c-5.9,0-10.7-2-14.4-6.1
		c-3.7-4.1-5.5-9.7-5.5-16.9c0-6.7,1.8-12.3,5.4-16.6c3.6-4.3,8.5-6.4,14.7-6.4C571,332,577,337.8,578.4,349.3z"/>
	<path class="st1" d="M600.9,378c-6,0-10.7-2.3-14-6.8c-3.3-4.5-4.9-10-4.9-16.4c0-6.5,1.7-12,5-16.3c3.3-4.4,8.1-6.5,14.3-6.5
		c6.2,0,10.9,2.3,14.1,7c3.2,4.7,4.8,10,4.8,16c0,6.5-1.6,11.9-4.9,16.4S607.2,378,600.9,378z M601.2,340.5c-5.5,0-8.2,4.8-8.2,14.5
		c0,9.7,2.7,14.5,8.2,14.5c5.3,0,8-4.8,8-14.5C609.2,345.4,606.5,340.5,601.2,340.5z"/>
	<path class="st1" d="M637.3,360.5v16.8h-10.6V332h17.6c3.9,0,6.9,0.4,9,1.3c2.1,0.9,3.9,2.4,5.6,4.6c1.6,2.2,2.5,4.9,2.5,8.1
		c0,2.2-0.4,4.4-1.3,6.5c-0.9,2.1-2.1,3.8-3.7,5c-1.6,1.2-3.1,2-4.6,2.4c-1.5,0.4-3.8,0.6-7,0.6H637.3z M637,352.3h6.8
		c2.6,0,4.4-0.6,5.5-1.8c1-1.2,1.6-2.6,1.6-4.2c0-1.8-0.6-3.3-1.8-4.4c-1.2-1.1-2.9-1.6-5.3-1.6H637V352.3z"/>
	<path class="st1" d="M698.8,368.5l-0.8,8.9h-33.5v-8.7c1.1-0.8,2.9-2.1,5.4-3.9c6.1-4.4,10.6-8,13.4-10.8c2.8-2.8,4.2-5.4,4.2-7.8
		c0-1.7-0.6-3.1-1.7-4.3c-1.1-1.1-2.6-1.7-4.5-1.7c-4.4,0-6.9,2.8-7.6,8.5l-9.2-2.1c2.1-9.8,7.8-14.8,17.2-14.8
		c5.3,0,9.3,1.4,12.2,4.2c2.8,2.8,4.2,6.1,4.2,9.9c0,4-1.5,7.5-4.4,10.6c-3,3.1-8.4,7-16.3,11.7H698.8z"/>
	<path class="st1" d="M704.9,350.3v-9.2c7.7-2.3,12.8-5.3,15.1-9.1h7.6v37.2h12.4v8.2h-36.2v-8.2h13.5v-25.6
		C712,346.9,707.8,349.1,704.9,350.3z"/>
</g>
<g>
	<polygon class="st1" points="551.3,380.9 546.7,395 555.8,395 	"/>
	<path class="st1" d="M665.4,435.7c1.3-1.5,2-3.3,2-5.3c0-0.4,0-0.9-0.1-1.4c-1.4-0.1-2.4-0.1-3.2-0.1c-2.7,0-4.8,0.4-6.3,1.3
		c-1.5,0.9-2.2,2.2-2.2,3.9c0,1.1,0.4,2,1.2,2.7c0.8,0.8,2,1.1,3.5,1.1C662.3,438,664,437.2,665.4,435.7z"/>
	<path class="st1" d="M737.5,438.7c-0.7,0.5-1.6,1-2.5,1.3h5v-6.2C740,435.9,739.2,437.5,737.5,438.7z"/>
	<path class="st1" d="M662.8,387.2c-1.7,0-3.1,0.7-4.3,2.1c-1.2,1.4-1.7,3.5-1.7,6.5c0,3.1,0.6,5.4,1.7,6.7s2.6,2,4.3,2
		c1.7,0,3.2-0.7,4.3-2.1c1.2-1.4,1.7-3.6,1.7-6.6c0-3-0.6-5.2-1.8-6.5C665.9,387.8,664.4,387.2,662.8,387.2z"/>
	<path class="st1" d="M633,413h-7v12h6.8c1.7,0,3.2-0.6,4.2-1.6c1.1-1,1.6-2.5,1.6-4.2c0-1.5-0.5-3-1.4-4.2
		C636.2,413.8,634.8,413,633,413z"/>
	<path class="st1" d="M730.8,387c-1.7,0-3.1,0.7-4.1,2.2c-1.1,1.5-1.6,3.6-1.6,6.3c0,2.9,0.5,5.1,1.5,6.6c1,1.5,2.4,2.3,4.1,2.3
		c1.6,0,3.2-0.7,4.4-2c1.2-1.3,2-2.9,2-4.6v-4.5c0-1.9-0.8-3.4-1.9-4.6C733.9,387.6,732.4,387,730.8,387z"/>
	<path class="st1" d="M584.8,421.1c-0.9-0.7-2-1-3.2-1c-1.7,0-3.1,0.7-4.3,1.9c-1.2,1.2-1.8,3-2,5h12c0-1-0.2-2.4-0.6-3.4
		C586.4,422.7,585.7,421.7,584.8,421.1z"/>
	<path class="st1" d="M737,377h3l0,0H540v29.7l9.5-29.7h4.2l9.6,30h-3.8l-3-9h-10.9l-2.6,9H540v33h6c-1.3-0.5-2.4-1.4-3.3-2.6
		c-1.7-2.2-2.5-4.9-2.5-8.2c0-3.4,0.8-6.2,2.5-8.4c1.6-2.2,4-3.4,6.7-3.4c2.6,0,4.7,1.2,6.7,3.6v-11h3v30h-3v-3.8
		c-1,1.9-2.4,3.1-4,3.8h25.9c-1.4-0.5-2.7-1.4-3.8-2.6c-1.9-2.1-2.8-4.9-2.8-8.3c0-3.5,1-6.3,2.9-8.5c1.9-2.2,4.3-3.2,7.2-3.2
		c2.9,0,5.2,0.8,6.9,2.8c1.7,2,2.6,4.7,2.7,8.7h-15.9c0,4,0.7,5.7,2.1,6.9c1.4,1.2,2.9,1.8,4.4,1.8c2.8,0,4.8-1.4,5.9-4.3l3.2,0.7
		c-0.6,1.9-1.7,3.4-3.4,4.7c-0.7,0.5-1.5,1-2.4,1.3h71.2c-0.8-0.3-1.6-0.8-2.2-1.4c-1.3-1.3-2-2.9-2-4.7c0-2.2,0.9-4,2.8-5.5
		c1.9-1.4,5.1-2.1,9.6-2.1c0.6,0,1.6,0,2.9,0.1c0-1.7-0.1-3-0.4-3.8c-0.3-0.8-0.8-1.4-1.7-1.9c-0.9-0.5-2-0.7-3.4-0.7
		c-3.5,0-5.5,1.3-6,4l-3.1-0.5c0.8-4,4-6.1,9.7-6.1c3,0,5.4,0.7,6.6,2c1.3,1.3,2.1,3.7,2.1,7v9.3c0,1.5-0.3,3.3,0,4.3h-3.4
		c-0.1-1-0.3-2-0.4-4c-1,2-2.4,3.3-4.2,4h63.7c-2.8-0.9-4.7-2.8-5.5-5.7l3.3-0.7c0.7,2.8,3,4.1,6.9,4.1c1.4,0,2.6-0.3,3.6-1
		c1-0.6,1.5-1.5,1.5-2.7c0-1.7-1.3-2.8-3.8-3.3l-4.6-0.9c-1.8-0.3-3.2-1-4.3-2c-1.1-1-1.6-2.4-1.6-4c0-1.8,0.7-3.4,2.2-4.6
		c1.5-1.2,3.4-1.9,5.9-1.9c4.8,0,7.7,1.9,8.8,5.6l-3.1,0.7c-0.9-2.3-2.7-3.4-5.5-3.4c-1.4,0-2.5,0.3-3.4,0.9
		c-0.9,0.6-1.3,1.4-1.3,2.4c0,1.6,1.1,2.6,3.4,3.1l4.3,0.8c4.5,0.8,6.7,3,6.7,6.5V407h-3v-4.1c-2,2.9-3.8,4.3-6.9,4.3
		c-2.5,0-4.6-1.1-6.3-3.2c-1.6-2.1-2.5-4.8-2.5-8.1c0-3.3,0.8-6.1,2.4-8.3c1.6-2.2,4-3.3,6.6-3.3c2.6,0,4.6,1.2,6.6,3.6V377z
		 M585.6,402.2c1,1.5,2.4,2.3,4.2,2.3c2.8,0,4.6-1.8,5.3-5.4l3.1,0.5c-0.4,2.4-1.4,4.3-2.9,5.6c-1.5,1.4-3.3,2-5.5,2
		c-3,0-5.3-1.1-6.9-3.3s-2.4-4.9-2.4-8.1c0-3.3,0.8-6,2.5-8.2c1.7-2.2,3.9-3.3,6.8-3.3c2.4,0,4.3,0.7,5.7,2.1
		c1.4,1.4,2.3,3.2,2.7,5.5l-3.1,0.6c-0.6-3.6-2.3-5.4-5.2-5.4c-1.9,0-3.3,0.8-4.3,2.4c-1,1.6-1.5,3.6-1.5,6.2
		C584.1,398.5,584.6,400.6,585.6,402.2z M619.2,404c-1.6-2.2-2.4-4.9-2.4-8.1c0-3.3,0.8-6,2.5-8.2c1.7-2.2,3.9-3.3,6.8-3.3
		c2.4,0,4.3,0.7,5.7,2.1c1.4,1.4,2.3,3.2,2.7,5.5l-3.1,0.6c-0.6-3.6-2.3-5.4-5.2-5.4c-1.9,0-3.3,0.8-4.3,2.4c-1,1.6-1.5,3.6-1.5,6.2
		c0,2.8,0.5,4.9,1.5,6.5s2.4,2.3,4.2,2.3c2.8,0,4.6-1.8,5.3-5.4l3.1,0.5c-0.4,2.4-1.4,4.3-2.9,5.6c-1.5,1.4-3.3,2-5.5,2
		C623,407.3,620.7,406.2,619.2,404z M639.8,425.5c-1.7,1.7-3.9,2.5-6.7,2.5H626v12h-4v-30h10.8c3.3,0,5.7,1.1,7.3,2.8
		c1.6,1.8,2.3,3.9,2.3,6.2C642.4,421.6,641.5,423.8,639.8,425.5z M669.8,404c-1.9,2.1-4.3,3.2-7.2,3.2c-3,0-5.3-1.1-7-3.3
		c-1.7-2.2-2.5-4.9-2.5-8.2c0-3.5,0.9-6.2,2.8-8.3c1.9-2.1,4.2-3.1,7-3.1c3,0,5.4,1.1,7.1,3.3c1.7,2.2,2.6,4.9,2.6,8.1
		C672.6,399.1,671.7,401.9,669.8,404z M695,421h-0.2c-1.9,0-3.5,0.6-4.7,2c-1.2,1.4-2.1,3.1-2.1,5.4V440h-3v-22h3v5.2
		c1-2.4,2-4,3-4.7c1.1-0.7,1.8-1.1,2.9-1.1c0.3,0,1,0,1,0.1V421z M704,388h-0.5c-1.9,0-3.3,0.5-4.6,1.9c-1.2,1.4-1.9,3-1.9,5.3V407
		h-4v-22h3v5c1-2.4,2.3-3.9,3.4-4.7c1.1-0.7,2.2-1.1,3.3-1.1c0.3,0,1.4,0,1.4,0.1V388z M710,440h-3v-22h3V440z M710,414h-3v-4h3V414
		z"/>
	<path class="st1 gg" d="M553.9,435.8c1.2-1.3,2.1-2.9,2.1-4.7v-4.6c0-1.9-0.8-3.5-2-4.6c-1.2-1.2-2.7-1.7-4.2-1.7
		c-1.7,0-3.1,0.8-4.2,2.3c-1.1,1.5-1.7,3.6-1.7,6.3c0,2.9,0.5,5.2,1.5,6.7c1,1.5,2.5,2.3,4.2,2.3
		C551.2,437.8,552.7,437.1,553.9,435.8z"/>
</g>
<rect x="855.8" y="581.9" class="st3" width="149.3" height="54.7"/>
<text transform="matrix(1 0 0 1 894.939 591.8909)" class="st2 st4 st5">Vérification</text>
<rect x="742.8" y="634.3" class="st3" width="149.3" height="54.7"/>
<text transform="matrix(1 0 0 1 781.4459 644.3077)"><tspan x="0" y="0" class="st2 st4 st5 st9 gg">Contributions</tspan><tspan x="1" y="18" class="st2 st4 st5">financières</tspan></text>
</svg>
